HIERARCHY
ROOT Hips
{
  OFFSET 265.287 66.7526 -254.649
  CHANNELS 6 Xposition Yposition Zposition Zrotation Xrotation Yrotation
  JOINT LeftUpLeg
  {
    OFFSET 8.64259 1.95398 -2.38835
    CHANNELS 3 Zrotation Xrotation Yrotation
    JOINT LeftLeg
    {
      OFFSET 43.7702 0 0
      CHANNELS 3 Zrotation Xrotation Yrotation
      JOINT LeftFoot
      {
        OFFSET 40.6238 0 0
        CHANNELS 3 Zrotation Xrotation Yrotation
        JOINT LeftToeBase
        {
          OFFSET 12.7242 0 0
          CHANNELS 3 Zrotation Xrotation Yrotation
          End Site
          {
            OFFSET 0 0 0
          }
        }
      }
    }
  }
  JOINT RightUpLeg
  {
    OFFSET -8.2249 1.95398 -2.59336
    CHANNELS 3 Zrotation Xrotation Yrotation
    JOINT RightLeg
    {
      OFFSET 43.5653 0 0
      CHANNELS 3 Zrotation Xrotation Yrotation
      JOINT RightFoot
      {
        OFFSET 40.6238 0 0
        CHANNELS 3 Zrotation Xrotation Yrotation
        JOINT RightToeBase
        {
          OFFSET 12.7242 0 0
          CHANNELS 3 Zrotation Xrotation Yrotation
          End Site
          {
            OFFSET 0 0 0
          }
        }
      }
    }
  }
  JOINT Spine
  {
    OFFSET 0.165834 0.87714 6.61349
    CHANNELS 3 Zrotation Xrotation Yrotation
    JOINT Spine1
    {
      OFFSET 7.38963 1.71661e-005 0
      CHANNELS 3 Zrotation Xrotation Yrotation
      JOINT Spine2
      {
        OFFSET 11.9445 1.14441e-005 0
        CHANNELS 3 Zrotation Xrotation Yrotation
        JOINT Spine3
        {
          OFFSET 14.7254 4.19617e-005 0
          CHANNELS 3 Zrotation Xrotation Yrotation
          JOINT Spine4
          {
            OFFSET 10.9679 0 0
            CHANNELS 3 Zrotation Xrotation Yrotation
            JOINT RightShoulder
            {
              OFFSET 2.46616 -1.6653 3.69651
              CHANNELS 3 Zrotation Xrotation Yrotation
              JOINT RightArm
              {
                OFFSET 13.0012 0 0
                CHANNELS 3 Zrotation Xrotation Yrotation
                JOINT RightForeArm
                {
                  OFFSET 28.7848 1.52588e-005 0
                  CHANNELS 3 Zrotation Xrotation Yrotation
                  JOINT RightHand
                  {
                    OFFSET 26.5688 1.52588e-005 0
                    CHANNELS 3 Zrotation Xrotation Yrotation
                    End Site
                    {
                      OFFSET 0 0 0
                    }
                  }
                }
              }
            }
            JOINT LeftShoulder
            {
              OFFSET 2.38034 -1.29275 -3.7523
              CHANNELS 3 Zrotation Xrotation Yrotation
              JOINT LeftArm
              {
                OFFSET 16.3182 6.10351e-005 0
                CHANNELS 3 Zrotation Xrotation Yrotation
                JOINT LeftForeArm
                {
                  OFFSET 27.0901 0 0
                  CHANNELS 3 Zrotation Xrotation Yrotation
                  JOINT LeftHand
                  {
                    OFFSET 24.5451 1.52588e-005 0
                    CHANNELS 3 Zrotation Xrotation Yrotation
                    End Site
                    {
                      OFFSET 0 0 0
                    }
                  }
                }
              }
            }
            JOINT Neck
            {
              OFFSET 5.0226 -0.0266342 0
              CHANNELS 3 Zrotation Xrotation Yrotation
              JOINT Head
              {
                OFFSET 6.69364 2.86102e-005 0
                CHANNELS 3 Zrotation Xrotation Yrotation
                End Site
                {
                  OFFSET 0 0 0
                }
              }
            }
          }
        }
      }
    }
  }
}
MOTION
Frames:	15
Frame Time:	0.0416667
-308.069 82.3747 -272.129 -89.77 37.7292 -93.8659 -165.905 15.6692 102.518 -62.8402 2.68954 -4.1935 46.5164 -8.29022 -10.1135 92.8072 -52.3612 -53.1592 -177.277 29.8196 74.8274 53.5032 75.3129 -145.956 -32.3307 24.1784 43.1682 -100.995 53.9723 -3.63585 -13.8619 7.05368 -102.317 9.12474 -33.0712 -22.2341 -2.25265 -33.9952 -20.6782 -25.4909 -25.16 -31.0187 -5.47823 -25.16 -31.0187 -5.03605 -23.1537 133.167 160.946 -28.2709 -57.0442 -3.30529 -16.9315 -129.274 131.68 38.9892 12.711 172.848 -46.185 -34.9874 -11.1779 7.87464 -101.183 5.83986 26.5516 -27.8996 6.77243 -5.14558 -62.1674 22.1784 -39.4664 -27.1759 11.6766 -34.9966 -40.2803 
-308.46 82.2499 -272.575 -89.5255 37.6745 -93.5772 -165.668 15.7225 103.171 -62.7887 2.4264 -3.97276 45.9663 -8.36575 -10.671 91.8134 -52.8595 -55.1058 -177.102 30.5367 75.1729 53.6985 75.4577 -145.868 -32.3277 23.8428 43.1288 -101.857 52.5717 -2.59814 -13.8594 7.09178 -102.325 9.03397 -33.0625 -22.2838 -2.34426 -33.9876 -20.7287 -25.5722 -25.1393 -31.0598 -5.55952 -25.1392 -31.0598 -5.29201 -23.7018 133.335 161.786 -27.7004 -56.4703 -3.52936 -17.1997 -129.571 131.291 38.6105 12.6866 173.059 -45.7157 -35.0639 -10.1122 7.36923 -101.194 5.39009 25.3447 -27.6602 6.85106 -5.14537 -61.7487 21.8751 -39.5971 -27.3155 11.8933 -35.16 -39.9457 
-309.562 81.8779 -273.834 -88.8248 37.5175 -92.7447 -165 15.9052 105.035 -62.6009 1.83055 -3.35329 44.447 -8.52176 -12.1075 89.0328 -54.0821 -60.3973 -176.624 32.5668 76.1363 54.0995 75.9771 -145.377 -32.2518 22.7612 43.0824 -104.116 47.9498 0.308118 -13.8528 7.20183 -102.347 8.77128 -33.0395 -22.4284 -2.61038 -33.9705 -20.8759 -25.8068 -25.0803 -31.1795 -5.79417 -25.0803 -31.1795 -6.08492 -25.3072 133.784 164.114 -25.9618 -54.8833 -4.15752 -17.9416 -130.398 130.139 37.5455 12.6283 173.606 -44.4302 -35.3048 -6.82055 5.97001 -101.146 4.18997 21.6476 -27.1407 7.10796 -5.15468 -60.5143 21.0028 -39.9676 -27.7238 12.5066 -35.6204 -38.9917 
-311.249 81.2445 -275.759 -87.7414 37.2752 -91.3604 -163.982 16.3066 108.002 -62.2271 1.40369 -2.41161 42.2485 -8.62079 -13.9017 85.0136 -55.5387 -67.8063 -175.952 35.6637 77.6067 53.9018 77.1982 -143.502 -31.8301 20.5884 43.2359 -106.819 38.3384 4.69671 -13.9768 7.78566 -102.602 7.35638 -33.3287 -23.5308 -4.03745 -34.306 -21.9717 -27.0605 -25.0714 -32.2498 -7.04784 -25.0714 -32.2498 2.8574 -20.5793 139.478 161.691 -23.7876 -59.4888 -4.84808 -21.4177 -131.852 128.039 36.0382 12.6945 175.837 -41.9892 -34.8247 1.78986 1.63998 -97.9871 2.53359 13.6587 -26.5896 7.58128 -5.17999 -58.4276 20.3845 -38.9621 -29.1198 12.8219 -34.6749 -37.9658 
-313.385 80.3204 -278.193 -86.4133 36.9633 -89.2556 -162.764 17.0746 112.103 -61.7117 1.82917 -1.22485 39.7673 -8.58146 -15.4867 80.5354 -56.8832 -75.9094 -175.273 39.4883 79.5834 49.1168 79.9244 -135.918 -30.2842 16.4819 43.9919 -107.559 19.4437 10.4606 -11.7859 2.88084 -98.5166 20.2048 -27.568 -11.4463 8.81272 -28.0405 -10.1394 -15.1547 -22.8634 -19.4535 4.85792 -22.8634 -19.4535 162.39 7.53725 62.0738 133.734 51.556 42.9708 -12.8608 7.15831 -121.257 127.198 33.1685 11.5174 151.587 -46.4413 -50.6732 -45.8377 43.3861 -48.5561 1.8021 20.646 -31.2866 9.03063 -5.57 -55.5905 13.9926 -64.2929 -15.3482 27.6588 -62.1811 -29.725 
-315.847 79.0723 -280.981 -84.9643 36.5699 -86.3517 -161.601 18.3086 117.331 -61.1688 3.65706 0.0618573 37.3801 -8.44425 -16.4842 76.1256 -57.95 -83.7555 -174.738 43.7904 81.9995 -20.9973 83.2024 -61.5866 -25.4871 11.0196 47.476 -96.3522 -16.9472 21.4964 -11.8563 3.10854 -98.6076 19.6751 -27.7508 -11.7648 8.28499 -28.2368 -10.4487 -15.6742 -22.9464 -19.8071 4.33847 -22.9464 -19.807 162.606 5.19074 58.7208 138.263 54.498 37.941 -13.3061 4.91966 -122.801 123.059 31.6505 12.1792 151.521 -45.2043 -51.1768 -31.7544 52.0596 -57.7227 0.275582 6.03842 -32.8212 10.4974 -5.73417 -51.5844 10.0619 -65.6861 -18.3287 29.338 -63.4015 -27.2198 
-318.545 77.5702 -283.92 -83.4204 36.0769 -82.8946 -160.725 19.9019 123.336 -60.5052 6.96307 1.21057 35.2301 -8.29224 -16.7782 71.8162 -58.5675 -91.1117 -174.862 48.8876 85.4063 -69.3972 57.8647 -7.45376 -7.70512 5.63878 50.7818 11.9087 -15.8425 96.6738 -11.9565 3.3891 -98.7252 19.019 -28.0029 -12.1669 7.63183 -28.506 -10.8383 -16.3195 -23.0717 -20.2605 3.69316 -23.0717 -20.2605 166.11 -0.490637 53.6246 145.016 57.4176 29.2882 -12.3736 -1.62818 -125.336 117.586 30.4778 13.4433 151.498 -43.8916 -51.6776 10.9753 61.6095 -91.8283 -0.729226 -20.1761 -38.031 12.7285 -5.86617 -46.007 5.39087 -67.1101 -22.0105 31.064 -64.7235 -24.6404 
-321.266 75.8179 -286.804 -81.7776 35.4862 -79.2236 -160.44 21.7887 129.76 -59.9049 11.4238 2.02807 33.4231 -8.26781 -16.5133 67.4358 -58.4972 -98.103 -176.863 53.2617 91.4062 -68.8457 8.97338 -1.19791 17.32 9.7002 34.5195 91.2551 -7.60586 8.85002 -12.0729 3.69193 -98.8609 18.3048 -28.2928 -12.6215 6.92098 -28.8152 -11.2784 -17.0212 -23.2185 -20.7743 2.99144 -23.2185 -20.7743 176.846 -14.7265 46.5158 160.813 56.1586 10.1247 -9.68477 -14.0067 -129.028 110.778 29.6288 15.3815 151.553 -42.5476 -52.1369 76.2571 44.6474 -142.864 -6.68983 -59.8541 -53.1386 16.7259 -5.98645 -38.3847 0.0202566 -68.4848 -26.404 32.7509 -66.1212 -22.1606 
-323.89 73.4093 -289.749 -80.0474 34.8127 -75.6037 -161.178 23.7565 136.707 -60.0506 16.7275 2.46709 32.4801 -8.66261 -16.0386 63.0478 -57.5864 -104.694 -177.034 54.7397 94.631 -59.6368 -20.767 0.138812 23.8924 15.338 18.6083 84.3172 -20.2217 -28.819 -12.1956 3.99272 -99.0022 17.5893 -28.595 -13.0901 6.20902 -29.1373 -11.7318 -17.7231 -23.3735 -21.3044 2.2895 -23.3735 -21.3044 -149.923 -50.172 47.6742 -175.884 25.7313 -15.0351 -7.0113 -26.2207 -134.213 103.126 28.9469 17.8349 151.685 -41.2372 -52.5333 104.087 13.3895 -153.483 -117.524 -78.0032 -177.053 23.2021 -5.93408 -29.7195 -6.11111 -69.7418 -31.5828 34.3341 -67.5892 -19.9407 
-326.523 70.4474 -292.71 -78.2595 34.0783 -72.2091 -162.611 25.2781 143.874 -60.438 22.3286 2.55216 32.327 -9.41988 -15.5359 58.981 -55.8916 -110.593 -174.833 53.8981 94.4036 -44.9669 -31.3246 0.274408 20.2066 19.3034 16.7767 76.2323 -22.2066 -43.8556 -12.3206 4.27661 -99.1354 16.9105 -28.8955 -13.5348 5.53382 -29.4566 -12.1614 -18.39 -23.5341 -21.8117 1.62261 -23.5341 -21.8117 -8.70129 -49.033 145.291 -171.53 -59.9921 -27.6752 -11.7239 -20.3948 -139.936 95.4948 28.5327 20.6731 151.872 -40.0492 -52.8503 114.62 -1.51651 -152.712 -113.233 -42.6377 179.827 30.7312 -5.05603 -20.6967 -13.1366 -70.7986 -37.6585 35.735 -69.1284 -18.144 
-329.208 66.996 -295.693 -76.4544 33.3066 -69.1463 -164.257 26.0851 150.965 -60.6377 27.8777 2.35365 32.8575 -10.464 -15.1332 55.5383 -53.6459 -115.532 -171.585 46.6651 92.0928 -17.9847 -34.6136 -0.0810586 7.90965 22.3779 24.1628 70.8125 -22.1933 -53.1048 -12.4476 4.53642 -99.2487 16.2891 -29.1887 -13.9252 4.91643 -29.7662 -12.5369 -19.0042 -23.7032 -22.2667 1.00848 -23.7031 -22.2667 37.7497 -1.92823 143.81 24.1355 -42.6859 155.13 -4.18723 -21.6805 -135.992 87.362 28.0316 23.948 152.092 -39.0755 -53.0697 115.905 -2.37281 -152.1 -104.505 -27.37 179.906 38.5562 -2.53217 -11.3953 -21.1154 -71.5514 -44.6585 36.8343 -70.7369 -16.9487 
-331.971 63.1892 -298.751 -74.6767 32.5164 -66.4718 -165.478 26.1413 157.616 -60.0769 33.1936 1.97555 33.8037 -11.7482 -14.9526 52.8287 -51.1478 -119.435 -169.325 45.865 89.5787 -5.9927 -35.0608 -0.352062 2.76826 23.3684 28.5317 66.8546 -21.6164 -59.763 -12.5772 4.77028 -99.3329 15.7336 -29.4724 -14.2397 4.36539 -30.063 -12.8368 -19.5601 -23.8847 -22.6496 0.452531 -23.8847 -22.6496 67.9253 18.4615 130.776 -37.8956 -62.986 95.9036 -124.571 42.4361 -173.55 78.606 25.7454 25.7917 152.319 -38.396 -53.1767 112.764 3.09175 -152.142 -91.9187 -6.934 179.393 50.2346 19.8399 -24.4601 -29.9027 -71.8931 -52.4115 37.4603 -72.4093 -16.5556 
-334.797 59.2678 -301.886 -72.9672 31.7217 -64.2024 -165.728 25.6989 163.437 -58.2121 38.15 1.54569 34.7739 -13.2561 -15.1112 50.7966 -48.6543 -122.389 -167.091 50.7982 86.4818 -7.98725 -32.71 -0.940214 4.85473 22.1434 28.9351 63.8356 -20.8226 -64.7691 -12.7102 4.97973 -99.3815 15.244 -29.7454 -14.4644 3.88112 -30.3454 -13.0469 -20.0598 -24.0813 -22.9474 -0.0471232 -24.0813 -22.9474 98.6827 27.4494 119.769 129.015 50.3076 66.7396 -53.1875 54.5015 -93.374 74.3327 25.4292 27.7397 152.518 -38.0745 -53.1686 107.935 10.7423 -151.928 -67.7514 -62.6071 -164.053 52.9641 5.11352 5.5371 -39.1207 -71.7388 -60.519 37.369 -74.1376 -17.2118 
-337.621 55.4759 -305.034 -71.3603 30.9343 -62.3328 -164.786 25.1501 168.162 -54.7925 42.6413 1.1935 35.4266 -14.9915 -15.7099 49.3212 -46.3435 -124.544 -164.686 54.226 83.0779 -8.96852 -30.9669 -1.87662 6.13003 22.0957 29.7429 61.5 -19.9699 -68.5562 -12.9016 5.17596 -99.3717 14.8053 -30.1067 -14.5441 3.45213 -30.7095 -13.1062 -20.5411 -24.4016 -23.1463 -0.528448 -24.4016 -23.1463 137.955 31.2618 109.058 114.87 33.2826 63.1895 -30.5709 30.6864 -116.202 66.2978 24.5635 31.4047 153.244 -38.4996 -52.588 101.753 18.8187 -150.569 -48.9237 -53.8404 -150.742 59.2708 9.44993 11.558 -60.9998 -72.4078 -79.9128 51.0128 -76.7267 -2.79663 
-340.342 52.0079 -308.094 -69.8835 30.1631 -60.8483 -162.725 24.8169 171.68 -49.8538 46.5971 1.01729 35.5343 -16.9509 -16.8235 48.2843 -44.332 -126.04 -162.433 56.5083 80.2375 -9.8921 -29.206 -4.09684 6.96974 22.3694 31.1453 59.6918 -19.1506 -71.4059 -11.8117 5.15179 -99.7228 14.7378 -28.1224 -15.559 3.31557 -28.7718 -14.2391 -20.1946 -22.2387 -23.3722 -0.181923 -22.2388 -23.3722 82.1371 17.3022 141.954 -166.151 -19.0672 33.709 -14.8912 -8.60748 -159.292 58.849 22.7699 33.8055 140.661 -31.2581 -62.0295 117.265 19.6019 -163.827 -44.4917 -45.0753 -152.188 65.0816 13.1827 15.4011 32.0705 0.731554 -25.4549 4.63614 -0.481914 -89.8899 
